<svg height="462pt" viewBox="-76 0 462 462.95165" width="462pt" xmlns="http://www.w3.org/2000/svg"><path d="m230.34375 462.953125-74.082031-42.601563-74.078125 42.601563v-194.417969h148.160156zm0 0" fill="#4e7693"/><path d="m156.261719 420.351562 74.082031 42.601563v-194.417969h-74.082031zm0 0" fill="#ffdf46"/><path d="m82.183594 316.585938c7.371094 5.832031 17.226562 7.457031 26.078125 4.296874 9.988281-3.558593 21.136719-1.015624 28.59375 6.523438 5.128906 5.191406 12.125 8.113281 19.421875 8.113281 7.300781 0 14.292968-2.921875 19.425781-8.113281 7.449219-7.527344 18.578125-10.070312 28.558594-6.523438 8.847656 3.152344 18.695312 1.53125 26.0625-4.296874v-48.050782h-148.140625zm0 0" fill="#2c5168"/><path d="m156.261719 335.519531c7.300781.011719 14.300781-2.914062 19.425781-8.113281 7.449219-7.535156 18.589844-10.078125 28.574219-6.523438 8.847656 3.152344 18.695312 1.53125 26.0625-4.296874v-48.050782h-74.0625zm0 0" fill="#ffc32c"/><path d="m307.792969 173.769531c3.917969 6.15625 5.210937 13.625 3.585937 20.738281-1.625 7.117188-6.027344 13.285157-12.230468 17.132813-9.011719 5.589844-13.972657 15.890625-12.722657 26.421875.859375 7.25-1.21875 14.539062-5.769531 20.246094-4.550781 5.703125-11.195312 9.351562-18.449219 10.128906-10.546875 1.125-19.484375 8.253906-22.929687 18.28125-2.371094 6.90625-7.40625 12.574219-13.988282 15.742188-6.578124 3.164062-14.152343 3.566406-21.027343 1.109374-9.988281-3.558593-21.136719-1.015624-28.59375 6.523438-5.128907 5.191406-12.125 8.113281-19.421875 8.113281s-14.292969-2.921875-19.425782-8.113281c-7.449218-7.527344-18.578124-10.070312-28.558593-6.523438-6.875 2.453126-14.445313 2.046876-21.019531-1.117187-6.574219-3.167969-11.609376-8.835937-13.980469-15.738281-3.445313-10.027344-12.382813-17.15625-22.929688-18.28125-7.253906-.777344-13.898437-4.425782-18.449219-10.132813-4.550781-5.703125-6.628906-12.992187-5.769531-20.242187 1.25-10.53125-3.710937-20.832032-12.722656-26.421875-6.203125-3.847657-10.605469-10.015625-12.230469-17.132813-1.625-7.113281-.332031-14.582031 3.585938-20.742187 5.695312-8.945313 5.695312-20.378907 0-29.324219-3.917969-6.160156-5.210938-13.628906-3.585938-20.742188 1.625-7.117187 6.027344-13.285156 12.230469-17.132812 9.011719-5.589844 13.972656-15.890625 12.722656-26.421875-.859375-7.25 1.21875-14.539063 5.769531-20.242187 4.550782-5.707032 11.195313-9.355469 18.449219-10.128907 10.542969-1.132812 19.476563-8.265625 22.917969-18.292969 2.375-6.902343 7.410156-12.570312 13.988281-15.734374 6.578125-3.160157 14.148438-3.5625 21.023438-1.105469 9.988281 3.558593 21.136719 1.015625 28.59375-6.523438 5.128906-5.191406 12.125-8.113281 19.421875-8.113281 7.300781 0 14.292968 2.921875 19.425781 8.113281 7.449219 7.527344 18.578125 10.070313 28.558594 6.523438 6.875-2.457031 14.445312-2.054688 21.023437 1.105469 6.578125 3.164062 11.613282 8.832031 13.988282 15.734374 3.445312 10.027344 12.382812 17.15625 22.929687 18.28125 7.253906.777344 13.898437 4.425782 18.449219 10.128907 4.550781 5.707031 6.628906 12.996093 5.769531 20.246093-1.25 10.53125 3.710937 20.832032 12.722656 26.421876 6.203125 3.847656 10.605469 10.015624 12.230469 17.132812 1.625 7.113281.332031 14.582031-3.585938 20.738281-5.695312 8.953125-5.695312 20.394531.003907 29.34375zm0 0" fill="#ffdf46"/><path d="m307.792969 144.441406c3.917969-6.160156 5.210937-13.628906 3.585937-20.742187-1.625-7.117188-6.027344-13.285157-12.230468-17.132813-9.011719-5.589844-13.972657-15.890625-12.722657-26.421875.859375-7.25-1.21875-14.539062-5.769531-20.242187-4.550781-5.707032-11.195312-9.355469-18.449219-10.128906-10.550781-1.128907-19.492187-8.261719-22.933593-18.296876-2.367188-6.878906-7.378907-12.527343-13.921876-15.695312-6.546874-3.167969-14.089843-3.597656-20.949218-1.1875 7.898437 2.75 14.101562 8.972656 16.820312 16.882812 3.445313 10.027344 12.382813 17.15625 22.925782 18.28125 7.257812.777344 13.902343 4.425782 18.453124 10.128907 4.550782 5.707031 6.628907 12.996093 5.769532 20.246093-1.25 10.53125 3.710937 20.832032 12.722656 26.421876 6.203125 3.847656 10.605469 10.015624 12.230469 17.132812 1.621093 7.113281.332031 14.582031-3.585938 20.738281-5.695312 8.949219-5.695312 20.382813 0 29.328125 3.917969 6.160156 5.207031 13.628906 3.585938 20.742188-1.625 7.117187-6.027344 13.285156-12.230469 17.132812-9.011719 5.589844-13.972656 15.890625-12.722656 26.421875.859375 7.25-1.21875 14.539063-5.769532 20.242188-4.550781 5.707031-11.195312 9.355469-18.453124 10.128906-10.542969 1.128906-19.484376 8.261719-22.925782 18.292969-2.710937 7.910156-8.90625 14.140625-16.800781 16.894531 6.863281 2.40625 14.40625 1.980469 20.949219-1.191406 6.546875-3.171875 11.558594-8.824219 13.921875-15.703125 3.445312-10.027344 12.386719-17.15625 22.929687-18.28125 7.257813-.777344 13.902344-4.425782 18.449219-10.132813 4.550781-5.703125 6.628906-12.992187 5.769531-20.242187-1.25-10.53125 3.710938-20.832032 12.722656-26.421875 6.203126-3.847657 10.605469-10.015625 12.230469-17.132813 1.625-7.113281.332031-14.582031-3.585937-20.742187-5.695313-8.941407-5.703125-20.371094-.015625-29.320313zm0 0" fill="#ffc32c"/><path d="m273.496094 159.105469c0 64.746093-52.488282 117.234375-117.234375 117.234375-64.746094 0-117.234375-52.488282-117.234375-117.234375 0-64.75 52.488281-117.238281 117.234375-117.238281 64.746093 0 117.234375 52.488281 117.234375 117.238281zm0 0" fill="#4e7693"/><path d="m156.261719 41.875c-3.199219 0-6.398438.164062-9.542969.402344 60.851562 4.9375 107.71875 55.761718 107.71875 116.8125 0 61.054687-46.867188 111.878906-107.71875 116.816406 3.152344.257812 6.328125.402344 9.542969.402344 63.894531-1.179688 115.070312-53.3125 115.070312-117.21875 0-63.902344-51.175781-116.035156-115.070312-117.214844zm0 0" fill="#2c5168"/><path d="m156.261719 206.652344-46.933594 24.671875 8.964844-52.261719-37.96875-37.007812 52.472656-7.621094 23.464844-47.550782 23.464843 47.550782 52.472657 7.621094-37.96875 37.007812 8.964843 52.261719zm0 0" fill="#ffdf46"/><g fill="#ffc32c"><path d="m107.191406 138.152344-9.882812 20.460937 12.386718 12.070313 17.082032-35.378906zm0 0"/><path d="m180.535156 134.546875-38.410156 79.535156 14.136719-7.429687 2.546875 1.339844 34.570312-71.582032zm0 0"/><path d="m211.34375 139.023438-8.515625-1.234376-35.949219 74.441407 7.261719 3.820312zm0 0"/><path d="m165.445312 105.496094-4.597656-9.328125-43.941406 90.980469-5.015625 29.242187zm0 0"/></g></svg>